<svg width="45" height="45" viewBox="0 0 45 45" fill="none" xmlns="http://www.w3.org/2000/svg">
<path d="M11.25 20.2501C9.59316 20.2501 8.25 21.5932 8.25 23.2501C8.25 24.9069 9.59316 26.2501 11.25 26.2501C12.9068 26.2501 14.25 24.9069 14.25 23.2501C14.25 21.5932 12.9069 20.2501 11.25 20.2501ZM11.25 24.7501C10.4215 24.7501 9.75 24.0785 9.75 23.2501C9.75 22.4216 10.4215 21.7501 11.25 21.7501C12.0785 21.7501 12.75 22.4216 12.75 23.2501C12.7501 24.0784 12.0785 24.7501 11.25 24.7501Z" fill="#007CED"/>
<path d="M29.4751 19.5H42C43.6568 19.5 45 18.1569 45 16.5V6.00005C45 4.3432 43.6568 3.00005 42 3.00005H27.75V0.750048C27.75 0.33586 27.4142 4.76246e-05 27 4.76246e-05H0.75C0.340406 -0.00454613 0.00459375 0.323766 0 0.733454C0 0.738985 0 0.744423 0 0.750048V39C0.00028125 39.3227 0.206813 39.609 0.513 39.711L16.263 44.961C16.3393 44.9869 16.4194 45 16.5 45C16.9142 45 17.25 44.6642 17.25 44.25V39.75H19.917C20.4487 40.6751 21.433 41.2467 22.5 41.25H42C43.6568 41.25 45 39.9069 45 38.25V30.75C45 29.0932 43.6568 27.75 42 27.75H29.475L27.75 26.5987V20.6512L29.4751 19.5ZM42 4.50005C42.8285 4.50005 43.5 5.17158 43.5 6.00005V9.00005H21V6.00005C21 5.17158 21.6715 4.50005 22.5 4.50005H42ZM15.7501 43.209L1.5 38.4593V1.79105L15.75 6.5408V43.209H15.7501ZM19.5001 30.75V38.25H17.2501V6.00005C17.2498 5.67736 17.0433 5.39105 16.7371 5.28905L5.37084 1.50005H26.25V3.00005H22.5C20.8432 3.00005 19.5 4.3432 19.5 6.00005V16.5C19.5 18.1569 20.8432 19.5 22.5 19.5H24V21.75C23.9999 22.1642 24.3357 22.5001 24.7499 22.5001C24.8981 22.5001 25.043 22.4563 25.1663 22.374L26.25 21.651V25.599L25.1663 24.876C24.8217 24.6462 24.356 24.7391 24.1261 25.0837C24.0439 25.207 24 25.3518 24 25.5V27.75H22.5C20.8432 27.75 19.5001 29.0931 19.5001 30.75ZM28.8337 29.1241C28.9571 29.206 29.1019 29.2498 29.25 29.25H42C42.8285 29.25 43.5 29.9216 43.5 30.75V38.25C43.5 39.0785 42.8285 39.75 42 39.75H22.5C21.6715 39.75 21 39.0785 21 38.25V30.75C21 29.9216 21.6715 29.25 22.5 29.25H24.75C25.1642 29.25 25.5 28.9142 25.5 28.5V26.901L28.8337 29.1241ZM25.5 20.349V18.75C25.5 18.3358 25.1642 18 24.75 18H22.5C21.6715 18 21 17.3284 21 16.5V10.5H43.5V16.5C43.5 17.3284 42.8285 18 42 18H29.25C29.1019 18.0002 28.9571 18.044 28.8337 18.126L25.5 20.349Z" fill="#007CED"/>
<path d="M41.25 15.0001H23.25V16.5001H41.25V15.0001Z" fill="#007CED"/>
<path d="M26.25 12.0001H24.75V13.5001H26.25V12.0001Z" fill="#007CED"/>
<path d="M41.25 12.0001H27.75V13.5001H41.25V12.0001Z" fill="#007CED"/>
<path d="M24 6.00006H22.5V7.50006H24V6.00006Z" fill="#007CED"/>
<path d="M27 6.00006H25.5V7.50006H27V6.00006Z" fill="#007CED"/>
<path d="M30 6.00006H28.5V7.50006H30V6.00006Z" fill="#007CED"/>
<path d="M26.0301 32.0303L24.9696 30.9698L23.4696 32.4698C23.1768 32.7627 23.1768 33.2374 23.4696 33.5303L24.9696 35.0303L26.0301 33.9698L25.0603 33L26.0301 32.0303Z" fill="#007CED"/>
<path d="M32.0302 32.4698L30.5302 30.9698L29.4697 32.0303L30.4395 33L29.4697 33.9698L30.5302 35.0303L32.0302 33.5303C32.3231 33.2374 32.3231 32.7626 32.0302 32.4698Z" fill="#007CED"/>
<path d="M27.7885 30.5116L26.2876 35.0116L27.7105 35.4861L29.2114 30.9862L27.7885 30.5116Z" fill="#007CED"/>
<path d="M35.25 32.2501H33.75V33.7501H35.25V32.2501Z" fill="#007CED"/>
<path d="M24.75 36.7501H23.25V38.2501H24.75V36.7501Z" fill="#007CED"/>
<path d="M41.25 36.7501H26.25V38.2501H41.25V36.7501Z" fill="#007CED"/>
<path d="M38.25 32.2501H36.75V33.7501H38.25V32.2501Z" fill="#007CED"/>
<path d="M41.25 32.2501H39.75V33.7501H41.25V32.2501Z" fill="#007CED"/>
</svg>
