<svg width="45" height="45" viewBox="0 0 45 45" fill="none" xmlns="http://www.w3.org/2000/svg">
<path d="M44.5923 21.0979C44.3455 20.9956 44.0614 21.0521 43.8725 21.241L41.8943 23.2191V9.76913C41.8943 9.4043 41.5985 9.10863 41.2338 9.10863H36.1589L38.0011 7.26645C38.0014 7.26618 38.0016 7.26583 38.0019 7.26557L39.7769 5.49053C40.1572 5.11022 40.3667 4.60433 40.3667 4.06644C40.3667 3.52855 40.1572 3.02282 39.7769 2.64234L37.7243 0.589746C37.344 0.209443 36.8381 0 36.3002 0C35.7623 0 35.2565 0.209443 34.8761 0.589746L33.1002 2.36566L30.9543 4.5116L26.3573 9.10855H5.85527V2.57432C5.85527 2.20948 5.55952 1.91382 5.19478 1.91382C2.33042 1.91399 0 4.24424 0 7.10877V35.1622C0 35.211 0.005625 35.2585 0.0156445 35.3042C0.106875 36.5196 0.632725 37.6489 1.51154 38.5062C2.45092 39.4224 3.69097 39.927 5.00335 39.927H25.1864L21.3852 43.7281C21.1963 43.9171 21.1398 44.2011 21.242 44.448C21.3442 44.6948 21.5851 44.8557 21.8522 44.8557H44.3395C44.7042 44.8557 45 44.56 45 44.1952V21.7081C45 21.441 44.839 21.2001 44.5923 21.0979ZM35.8104 1.52394C36.0804 1.25376 36.5203 1.25376 36.7903 1.52394L38.843 3.57662C39.1132 3.84671 39.1132 4.28643 38.843 4.5566L37.5342 5.86547L34.5015 2.8328L35.8104 1.52394ZM33.5674 3.7669L36.6 6.79948L35.3881 8.01141L32.3556 4.97883L33.5674 3.7669ZM43.6792 29.1298H42.4606C42.0957 29.1298 41.8001 29.4254 41.8001 29.7903C41.8001 30.1551 42.0957 30.4508 42.4606 30.4508H43.6792V32.4411H42.4606C42.0957 32.4411 41.8001 32.7368 41.8001 33.1016C41.8001 33.4665 42.0957 33.7621 42.4606 33.7621H43.6792V35.7524H42.4606C42.0957 35.7524 41.8001 36.0481 41.8001 36.4129C41.8001 36.7777 42.0957 37.0734 42.4606 37.0734H43.6792V39.0638H42.4606C42.0957 39.0638 41.8001 39.3595 41.8001 39.7243C41.8001 40.0891 42.0957 40.3848 42.4606 40.3848H43.6792V43.535H23.4468L30.1184 36.8634C30.3763 36.6054 30.3763 36.1873 30.1184 35.9293C30.0887 35.8997 30.0569 35.8741 30.0236 35.8512C29.7664 35.6751 29.4126 35.701 29.1842 35.9293L26.5074 38.6061H5.00344C3.00023 38.6061 1.38762 37.0422 1.32416 35.0426C1.32794 34.9171 1.3377 34.7926 1.35334 34.6696C1.35343 34.6689 1.35352 34.6682 1.3536 34.6675C1.36099 34.609 1.36986 34.5509 1.37997 34.493C1.38111 34.4864 1.38234 34.4798 1.38349 34.4733C1.39271 34.4217 1.40309 34.3703 1.41442 34.3192C1.41759 34.3049 1.42093 34.2907 1.42427 34.2766C1.43429 34.2333 1.4451 34.1903 1.4567 34.1475C1.46303 34.1243 1.46962 34.1014 1.47639 34.0783C1.48605 34.0447 1.49607 34.0112 1.50671 33.9781C1.51734 33.9449 1.52868 33.9122 1.5402 33.8794C1.54819 33.8564 1.5561 33.8335 1.56472 33.8107C1.5808 33.7675 1.59785 33.7247 1.61543 33.6822C1.62044 33.67 1.62536 33.6576 1.63055 33.6454C1.65313 33.5927 1.6766 33.5406 1.70139 33.4891C1.70244 33.4869 1.70341 33.4847 1.70446 33.4825C2.22108 32.4134 3.21469 31.6163 4.4071 31.369C4.41044 31.3683 4.41378 31.3675 4.41712 31.3668C4.47179 31.3556 4.52698 31.346 4.58253 31.3371C4.59176 31.3356 4.60099 31.3338 4.61039 31.3324C4.66058 31.3247 4.71129 31.3188 4.762 31.3131C4.77624 31.3115 4.79039 31.3093 4.80472 31.3079C4.85367 31.3029 4.90307 31.2997 4.95246 31.2966C4.96811 31.2957 4.98375 31.294 4.99939 31.2932C5.06408 31.2899 5.1293 31.2883 5.19478 31.2883C5.55952 31.2883 5.85527 30.9926 5.85527 30.6278V25.8387C5.85527 25.4739 5.55952 25.1782 5.19478 25.1782C4.83003 25.1782 4.53428 25.4739 4.53428 25.8387V30.0088C3.41895 30.1499 2.38368 30.6474 1.56735 31.4445C1.48148 31.5284 1.4001 31.6156 1.32082 31.7042V7.10877C1.32082 5.19794 2.71178 3.60562 4.53419 3.29115V9.76913V23.1968V23.1969C4.53419 23.5616 4.82994 23.8574 5.19469 23.8574C5.55943 23.8574 5.85519 23.5616 5.85519 23.1969V23.1968V10.4296H25.0364L21.3851 14.081C21.1271 14.339 21.1271 14.7571 21.3851 15.0151C21.6431 15.2729 22.0613 15.2729 22.3191 15.0151L27.098 10.2362C27.0982 10.236 27.0983 10.2358 27.0984 10.2357L31.4213 5.91284L34.4538 8.94551L34.098 9.30129C34.0978 9.30155 34.0974 9.30182 34.0972 9.30208L20.7793 22.6201L17.7467 19.5876L20.3718 16.9625C20.6298 16.7044 20.6298 16.2863 20.3718 16.0283C20.1139 15.7705 19.6957 15.7705 19.4378 16.0283L16.3455 19.1205C16.329 19.137 16.3136 19.1545 16.2991 19.1725C16.2942 19.1784 16.2899 19.1849 16.2853 19.1911C16.276 19.2035 16.2669 19.216 16.2584 19.229C16.2535 19.2365 16.2491 19.2443 16.2446 19.2521C16.2373 19.2644 16.2302 19.2769 16.2238 19.2896C16.2196 19.2979 16.2158 19.3062 16.212 19.3148C16.2061 19.3278 16.2006 19.3409 16.1956 19.3541C16.1938 19.3588 16.1916 19.3632 16.1899 19.3678L14.9031 23.0131L14.0258 25.4986C14.0142 25.5316 14.0058 25.5652 13.9996 25.599H11.803C11.4383 25.599 11.1425 25.8947 11.1425 26.2595C11.1425 26.6244 11.4383 26.92 11.803 26.92H30.0943C30.4591 26.92 30.7548 26.6244 30.7548 26.2595C30.7548 25.8947 30.4591 25.599 30.0943 25.599H16.9711L20.9991 24.1771C21.0024 24.1759 21.0056 24.1742 21.0089 24.173C21.0246 24.1672 21.04 24.1607 21.0552 24.1537C21.0612 24.1509 21.0673 24.1483 21.0732 24.1454C21.089 24.1375 21.1046 24.1288 21.1199 24.1195C21.1248 24.1165 21.1299 24.1138 21.1347 24.1107C21.1506 24.1005 21.1661 24.0893 21.1813 24.0775C21.1851 24.0746 21.189 24.0721 21.1927 24.0691C21.2111 24.0543 21.2291 24.0384 21.2462 24.0214L34.8379 10.4297H40.5732V24.5402L31.1253 33.9882C30.8674 34.2462 30.8674 34.6643 31.1253 34.9223C31.1414 34.9384 31.1582 34.9535 31.1755 34.9676C31.2966 35.0663 31.4445 35.1157 31.5924 35.1157C31.7402 35.1157 31.8882 35.0663 32.0092 34.9676C32.0266 34.9536 32.0433 34.9384 32.0594 34.9223C32.0597 34.922 32.0594 34.9223 32.0597 34.922L43.6792 23.3024V29.1298ZM19.5712 23.2801L17.6793 23.948L16.4188 22.6875L17.0866 20.7955L19.5712 23.2801Z" fill="#007CED"/>
</svg>
