<svg width="45" height="40" viewBox="0 0 45 40" fill="none" xmlns="http://www.w3.org/2000/svg">
<path d="M17.7546 28.882C17.5846 28.882 17.4134 28.8236 17.2737 28.7046L12.4663 24.611C12.3004 24.4697 12.2051 24.2632 12.2051 24.0451C12.2051 23.8275 12.3008 23.621 12.4663 23.4796L17.2737 19.3861C17.5859 19.1199 18.0548 19.1577 18.3209 19.4698C18.5867 19.7824 18.5494 20.2513 18.2368 20.5171L14.0939 24.0451L18.2368 27.5732C18.5494 27.8394 18.5867 28.3082 18.3209 28.6204C18.1738 28.7933 17.9648 28.882 17.7546 28.882Z" fill="#007CED"/>
<path d="M27.2452 28.882C27.0351 28.882 26.8261 28.7933 26.6793 28.6204C26.4132 28.3082 26.4509 27.8394 26.7631 27.5732L30.906 24.0451L26.7631 20.5171C26.4509 20.2513 26.4132 19.7824 26.6793 19.4698C26.9451 19.1577 27.4144 19.1199 27.7262 19.3861L32.5336 23.4796C32.6994 23.621 32.7948 23.8275 32.7948 24.0451C32.7948 24.2632 32.6994 24.4697 32.5336 24.611L27.7262 28.7046C27.5864 28.8236 27.4152 28.882 27.2452 28.882Z" fill="#007CED"/>
<path d="M20.7983 31.9524C20.7473 31.9524 20.6959 31.947 20.6441 31.9362C20.2428 31.8516 19.9857 31.4574 20.0703 31.0561L23.0665 16.8306C23.151 16.4293 23.5449 16.1723 23.9466 16.2569C24.3479 16.3414 24.605 16.7353 24.5204 17.137L21.5242 31.3624C21.4504 31.7124 21.142 31.9524 20.7983 31.9524Z" fill="#007CED"/>
<path d="M40.0118 39.7025H4.98821C2.23789 39.7025 0 37.465 0 34.7143V4.98821C0 2.23789 2.23789 0 4.98821 0H40.0118C42.7621 0 45 2.23789 45 4.98821V34.7143C45 37.465 42.7621 39.7025 40.0118 39.7025ZM4.98821 1.48585C3.0571 1.48585 1.48585 3.0571 1.48585 4.98821V34.7143C1.48585 36.6454 3.0571 38.2167 4.98821 38.2167H40.0118C41.9429 38.2167 43.5142 36.6454 43.5142 34.7143V4.98821C43.5142 3.0571 41.9429 1.48585 40.0118 1.48585H4.98821Z" fill="#007CED"/>
<path d="M44.2571 11.8963H0.742925C0.332492 11.8963 0 11.5638 0 11.1534C0 10.7434 0.332492 10.4105 0.742925 10.4105H44.2571C44.6675 10.4105 45 10.7434 45 11.1534C45 11.5638 44.6675 11.8963 44.2571 11.8963Z" fill="#007CED"/>
<path d="M12.6934 8.34132C11.3974 8.34132 10.3423 7.28622 10.3423 5.99025C10.3423 4.69386 11.3974 3.63918 12.6934 3.63918C13.9897 3.63918 15.0444 4.69386 15.0444 5.99025C15.0444 7.28622 13.9897 8.34132 12.6934 8.34132ZM12.6934 5.12502C12.2166 5.12502 11.8281 5.51307 11.8281 5.99025C11.8281 6.46743 12.2166 6.85547 12.6934 6.85547C13.1705 6.85547 13.5586 6.46743 13.5586 5.99025C13.5586 5.51307 13.1705 5.12502 12.6934 5.12502Z" fill="#007CED"/>
<path d="M5.46973 8.31851C4.17334 8.31851 3.11865 7.26382 3.11865 5.96744C3.11865 4.67105 4.17334 3.61636 5.46973 3.61636C6.76611 3.61636 7.8208 4.67105 7.8208 5.96744C7.8208 7.26382 6.76611 8.31851 5.46973 8.31851ZM5.46973 5.10221C4.99296 5.10221 4.6045 5.49067 4.6045 5.96744C4.6045 6.44462 4.99296 6.83266 5.46973 6.83266C5.94691 6.83266 6.33495 6.44462 6.33495 5.96744C6.33495 5.49067 5.94691 5.10221 5.46973 5.10221Z" fill="#007CED"/>
<path d="M19.9171 8.36371C18.6211 8.36371 17.5664 7.30902 17.5664 6.01263C17.5664 4.71666 18.6211 3.66197 19.9171 3.66197C21.2135 3.66197 22.2681 4.71666 22.2681 6.01263C22.2681 7.30902 21.2135 8.36371 19.9171 8.36371ZM19.9171 5.14741C19.4403 5.14741 19.0523 5.53545 19.0523 6.01263C19.0523 6.48981 19.4403 6.87786 19.9171 6.87786C20.3942 6.87786 20.7823 6.48981 20.7823 6.01263C20.7823 5.53545 20.3942 5.14741 19.9171 5.14741Z" fill="#007CED"/>
</svg>
