<?xml version="1.0" encoding="UTF-8"?><!DOCTYPE svg PUBLIC "-//W3C//DTD SVG 1.1//EN" "http://www.w3.org/Graphics/SVG/1.1/DTD/svg11.dtd"><svg xmlns="http://www.w3.org/2000/svg" xmlns:xlink="http://www.w3.org/1999/xlink"><defs/><symbol id="analitic" viewBox="0 0 45 45">
<path d="M18.7602 3.00128C10.0649 3.00128 3.01611 10.0501 3.01611 18.7453C3.01611 27.4405 10.0649 34.4894 18.7602 34.4894C27.4554 34.4894 34.5042 27.4405 34.5042 18.7453C34.4947 10.054 27.4514 3.01075 18.7602 3.00128ZM18.7602 4.50071C23.3912 4.50437 27.7308 6.76139 30.3927 10.5509L28.5185 12.4252C28.0624 12.1492 27.5402 12.0015 27.007 11.9979C25.3508 11.9979 24.0082 13.3405 24.0082 14.9967C24.0108 15.5304 24.1576 16.0535 24.4333 16.5104L19.5241 21.4196C18.5946 20.8528 17.4263 20.8528 16.4968 21.4196L13.0871 18.0099C13.3627 17.5529 13.5095 17.0299 13.5121 16.4962C13.5142 14.8432 12.176 13.5016 10.523 13.4996C9.15601 13.4979 7.96162 14.4226 7.62087 15.7465H4.83942C6.25892 9.19141 12.0532 4.51055 18.7602 4.50071ZM28.5065 14.9967C28.5065 15.8249 27.8352 16.4962 27.007 16.4962C26.1789 16.4962 25.5076 15.8249 25.5076 14.9967C25.5076 14.1686 26.1789 13.4973 27.007 13.4973C27.8352 13.4973 28.5065 14.1686 28.5065 14.9967ZM19.5099 23.9933C19.5099 24.8215 18.8386 25.4928 18.0104 25.4928C17.1823 25.4928 16.511 24.8215 16.511 23.9933C16.511 23.1652 17.1823 22.4939 18.0104 22.4939C18.8386 22.4939 19.5099 23.1652 19.5099 23.9933ZM12.0127 16.4962C12.0127 17.3243 11.3414 17.9956 10.5133 17.9956C9.68512 17.9956 9.01384 17.3243 9.01384 16.4962C9.01384 15.668 9.68512 14.9967 10.5133 14.9967C11.3414 14.9967 12.0127 15.668 12.0127 16.4962ZM25.6813 31.2005C23.5641 32.3761 21.1819 32.992 18.7602 32.9898C10.8984 32.9952 4.52089 26.6264 4.51555 18.7647C4.51517 18.2574 4.54197 17.7503 4.59577 17.2458H7.62087C7.96171 18.5658 9.15001 19.4898 10.5133 19.4949C11.047 19.4923 11.57 19.3455 12.027 19.0699L15.4367 22.4796C15.161 22.9365 15.0142 23.4595 15.0116 23.9932C15.0116 25.6495 16.3542 26.9921 18.0104 26.9921C19.6667 26.9921 21.0093 25.6495 21.0093 23.9932C21.0067 23.4595 20.8598 22.9365 20.5842 22.4796L25.4934 17.5704C25.9503 17.846 26.4733 17.9929 27.007 17.9955C28.6632 17.9955 30.0059 16.6529 30.0059 14.9966C30.0033 14.4629 29.8564 13.9399 29.5808 13.483L31.2152 11.8493C35.0308 18.7212 32.5532 27.3851 25.6813 31.2005Z" fill="#007CED"/>
<path d="M37.5028 7.49957C38.8661 7.49442 40.0544 6.57048 40.3952 5.25042H45V3.75099H40.3952C40.0544 2.43093 38.8661 1.50699 37.5028 1.50184C35.8466 1.50184 34.504 2.84449 34.504 4.5007C34.5066 5.03441 34.6534 5.55743 34.9291 6.01438L33.6118 7.33163C27.309 -0.879727 15.543 -2.42695 7.33163 3.87582C-0.879727 10.1786 -2.42695 21.9447 3.87582 30.1561C9.82519 37.9069 20.7308 39.7871 28.9321 34.4759L31.1947 36.7385L32.2548 37.7986L38.29 43.8338C39.825 45.3688 42.3135 45.3688 43.8484 43.8338C45.3834 42.2989 45.3834 39.8104 43.8484 38.2754L37.8132 32.2402L36.7531 31.1801L34.4905 28.9175C38.507 22.7308 38.507 14.7599 34.4905 8.57316L35.9899 7.07373C36.4466 7.34944 36.9694 7.49657 37.5028 7.49957ZM37.5028 3.00127C38.331 3.00127 39.0023 3.67255 39.0023 4.5007C39.0023 5.32886 38.331 6.00014 37.5028 6.00014C36.6747 6.00014 36.0034 5.32886 36.0034 4.5007C36.0034 3.67255 36.6748 3.00127 37.5028 3.00127ZM42.7883 39.3355C43.7485 40.2742 43.7661 41.8135 42.8274 42.7737C41.8888 43.7339 40.3494 43.7514 39.3892 42.8128C39.376 42.8 39.3631 42.7869 39.3501 42.7737L33.3149 36.7385L36.7531 33.3003L42.7883 39.3355ZM35.693 32.2402L32.2548 35.6784L30.1796 33.6032C30.2853 33.5222 30.3843 33.433 30.4885 33.3498C30.5927 33.2666 30.7134 33.1669 30.8251 33.0731C30.9893 32.9352 31.1512 32.7957 31.3102 32.6525C31.3919 32.5776 31.4699 32.5026 31.5501 32.4276C31.8575 32.1397 32.1551 31.8421 32.443 31.5347C32.518 31.4545 32.5929 31.3765 32.6679 31.2948C32.8111 31.1359 32.9506 30.9739 33.0885 30.8097C33.1825 30.6988 33.2747 30.5866 33.3652 30.4731C33.4476 30.3697 33.5368 30.2707 33.6178 30.165L35.693 32.2402ZM32.7856 28.7578C32.5495 29.0876 32.3058 29.4108 32.0487 29.7219C31.9737 29.8126 31.8935 29.9003 31.8162 29.9896C31.5868 30.2565 31.3499 30.5154 31.1055 30.7663C30.9991 30.8762 30.8908 30.9844 30.7809 31.0909C30.5309 31.3353 30.2721 31.5722 30.0042 31.8016C29.915 31.8766 29.8272 31.9583 29.7365 32.034C29.4254 32.2912 29.1023 32.5348 28.7724 32.771C21.0113 38.3156 10.2249 36.5188 4.68026 28.7578C-0.864358 20.9967 0.932431 10.2103 8.69349 4.66564C16.4546 -0.878977 27.241 0.917718 32.7856 8.67887C37.076 14.6843 37.076 22.7524 32.7856 28.7578Z" fill="#007CED"/>
</symbol><symbol id="backend" viewBox="0 0 45 45">
<path d="M11.25 20.2501C9.59316 20.2501 8.25 21.5932 8.25 23.2501C8.25 24.9069 9.59316 26.2501 11.25 26.2501C12.9068 26.2501 14.25 24.9069 14.25 23.2501C14.25 21.5932 12.9069 20.2501 11.25 20.2501ZM11.25 24.7501C10.4215 24.7501 9.75 24.0785 9.75 23.2501C9.75 22.4216 10.4215 21.7501 11.25 21.7501C12.0785 21.7501 12.75 22.4216 12.75 23.2501C12.7501 24.0784 12.0785 24.7501 11.25 24.7501Z" fill="#007CED"/>
<path d="M29.4751 19.5H42C43.6568 19.5 45 18.1569 45 16.5V6.00005C45 4.3432 43.6568 3.00005 42 3.00005H27.75V0.750048C27.75 0.33586 27.4142 4.76246e-05 27 4.76246e-05H0.75C0.340406 -0.00454613 0.00459375 0.323766 0 0.733454C0 0.738985 0 0.744423 0 0.750048V39C0.00028125 39.3227 0.206813 39.609 0.513 39.711L16.263 44.961C16.3393 44.9869 16.4194 45 16.5 45C16.9142 45 17.25 44.6642 17.25 44.25V39.75H19.917C20.4487 40.6751 21.433 41.2467 22.5 41.25H42C43.6568 41.25 45 39.9069 45 38.25V30.75C45 29.0932 43.6568 27.75 42 27.75H29.475L27.75 26.5987V20.6512L29.4751 19.5ZM42 4.50005C42.8285 4.50005 43.5 5.17158 43.5 6.00005V9.00005H21V6.00005C21 5.17158 21.6715 4.50005 22.5 4.50005H42ZM15.7501 43.209L1.5 38.4593V1.79105L15.75 6.5408V43.209H15.7501ZM19.5001 30.75V38.25H17.2501V6.00005C17.2498 5.67736 17.0433 5.39105 16.7371 5.28905L5.37084 1.50005H26.25V3.00005H22.5C20.8432 3.00005 19.5 4.3432 19.5 6.00005V16.5C19.5 18.1569 20.8432 19.5 22.5 19.5H24V21.75C23.9999 22.1642 24.3357 22.5001 24.7499 22.5001C24.8981 22.5001 25.043 22.4563 25.1663 22.374L26.25 21.651V25.599L25.1663 24.876C24.8217 24.6462 24.356 24.7391 24.1261 25.0837C24.0439 25.207 24 25.3518 24 25.5V27.75H22.5C20.8432 27.75 19.5001 29.0931 19.5001 30.75ZM28.8337 29.1241C28.9571 29.206 29.1019 29.2498 29.25 29.25H42C42.8285 29.25 43.5 29.9216 43.5 30.75V38.25C43.5 39.0785 42.8285 39.75 42 39.75H22.5C21.6715 39.75 21 39.0785 21 38.25V30.75C21 29.9216 21.6715 29.25 22.5 29.25H24.75C25.1642 29.25 25.5 28.9142 25.5 28.5V26.901L28.8337 29.1241ZM25.5 20.349V18.75C25.5 18.3358 25.1642 18 24.75 18H22.5C21.6715 18 21 17.3284 21 16.5V10.5H43.5V16.5C43.5 17.3284 42.8285 18 42 18H29.25C29.1019 18.0002 28.9571 18.044 28.8337 18.126L25.5 20.349Z" fill="#007CED"/>
<path d="M41.25 15.0001H23.25V16.5001H41.25V15.0001Z" fill="#007CED"/>
<path d="M26.25 12.0001H24.75V13.5001H26.25V12.0001Z" fill="#007CED"/>
<path d="M41.25 12.0001H27.75V13.5001H41.25V12.0001Z" fill="#007CED"/>
<path d="M24 6.00006H22.5V7.50006H24V6.00006Z" fill="#007CED"/>
<path d="M27 6.00006H25.5V7.50006H27V6.00006Z" fill="#007CED"/>
<path d="M30 6.00006H28.5V7.50006H30V6.00006Z" fill="#007CED"/>
<path d="M26.0301 32.0303L24.9696 30.9698L23.4696 32.4698C23.1768 32.7627 23.1768 33.2374 23.4696 33.5303L24.9696 35.0303L26.0301 33.9698L25.0603 33L26.0301 32.0303Z" fill="#007CED"/>
<path d="M32.0302 32.4698L30.5302 30.9698L29.4697 32.0303L30.4395 33L29.4697 33.9698L30.5302 35.0303L32.0302 33.5303C32.3231 33.2374 32.3231 32.7626 32.0302 32.4698Z" fill="#007CED"/>
<path d="M27.7885 30.5116L26.2876 35.0116L27.7105 35.4861L29.2114 30.9862L27.7885 30.5116Z" fill="#007CED"/>
<path d="M35.25 32.2501H33.75V33.7501H35.25V32.2501Z" fill="#007CED"/>
<path d="M24.75 36.7501H23.25V38.2501H24.75V36.7501Z" fill="#007CED"/>
<path d="M41.25 36.7501H26.25V38.2501H41.25V36.7501Z" fill="#007CED"/>
<path d="M38.25 32.2501H36.75V33.7501H38.25V32.2501Z" fill="#007CED"/>
<path d="M41.25 32.2501H39.75V33.7501H41.25V32.2501Z" fill="#007CED"/>
</symbol><symbol id="design" viewBox="0 0 45 45">
<path d="M44.5923 21.0979C44.3455 20.9956 44.0614 21.0521 43.8725 21.241L41.8943 23.2191V9.76913C41.8943 9.4043 41.5985 9.10863 41.2338 9.10863H36.1589L38.0011 7.26645C38.0014 7.26618 38.0016 7.26583 38.0019 7.26557L39.7769 5.49053C40.1572 5.11022 40.3667 4.60433 40.3667 4.06644C40.3667 3.52855 40.1572 3.02282 39.7769 2.64234L37.7243 0.589746C37.344 0.209443 36.8381 0 36.3002 0C35.7623 0 35.2565 0.209443 34.8761 0.589746L33.1002 2.36566L30.9543 4.5116L26.3573 9.10855H5.85527V2.57432C5.85527 2.20948 5.55952 1.91382 5.19478 1.91382C2.33042 1.91399 0 4.24424 0 7.10877V35.1622C0 35.211 0.005625 35.2585 0.0156445 35.3042C0.106875 36.5196 0.632725 37.6489 1.51154 38.5062C2.45092 39.4224 3.69097 39.927 5.00335 39.927H25.1864L21.3852 43.7281C21.1963 43.9171 21.1398 44.2011 21.242 44.448C21.3442 44.6948 21.5851 44.8557 21.8522 44.8557H44.3395C44.7042 44.8557 45 44.56 45 44.1952V21.7081C45 21.441 44.839 21.2001 44.5923 21.0979ZM35.8104 1.52394C36.0804 1.25376 36.5203 1.25376 36.7903 1.52394L38.843 3.57662C39.1132 3.84671 39.1132 4.28643 38.843 4.5566L37.5342 5.86547L34.5015 2.8328L35.8104 1.52394ZM33.5674 3.7669L36.6 6.79948L35.3881 8.01141L32.3556 4.97883L33.5674 3.7669ZM43.6792 29.1298H42.4606C42.0957 29.1298 41.8001 29.4254 41.8001 29.7903C41.8001 30.1551 42.0957 30.4508 42.4606 30.4508H43.6792V32.4411H42.4606C42.0957 32.4411 41.8001 32.7368 41.8001 33.1016C41.8001 33.4665 42.0957 33.7621 42.4606 33.7621H43.6792V35.7524H42.4606C42.0957 35.7524 41.8001 36.0481 41.8001 36.4129C41.8001 36.7777 42.0957 37.0734 42.4606 37.0734H43.6792V39.0638H42.4606C42.0957 39.0638 41.8001 39.3595 41.8001 39.7243C41.8001 40.0891 42.0957 40.3848 42.4606 40.3848H43.6792V43.535H23.4468L30.1184 36.8634C30.3763 36.6054 30.3763 36.1873 30.1184 35.9293C30.0887 35.8997 30.0569 35.8741 30.0236 35.8512C29.7664 35.6751 29.4126 35.701 29.1842 35.9293L26.5074 38.6061H5.00344C3.00023 38.6061 1.38762 37.0422 1.32416 35.0426C1.32794 34.9171 1.3377 34.7926 1.35334 34.6696C1.35343 34.6689 1.35352 34.6682 1.3536 34.6675C1.36099 34.609 1.36986 34.5509 1.37997 34.493C1.38111 34.4864 1.38234 34.4798 1.38349 34.4733C1.39271 34.4217 1.40309 34.3703 1.41442 34.3192C1.41759 34.3049 1.42093 34.2907 1.42427 34.2766C1.43429 34.2333 1.4451 34.1903 1.4567 34.1475C1.46303 34.1243 1.46962 34.1014 1.47639 34.0783C1.48605 34.0447 1.49607 34.0112 1.50671 33.9781C1.51734 33.9449 1.52868 33.9122 1.5402 33.8794C1.54819 33.8564 1.5561 33.8335 1.56472 33.8107C1.5808 33.7675 1.59785 33.7247 1.61543 33.6822C1.62044 33.67 1.62536 33.6576 1.63055 33.6454C1.65313 33.5927 1.6766 33.5406 1.70139 33.4891C1.70244 33.4869 1.70341 33.4847 1.70446 33.4825C2.22108 32.4134 3.21469 31.6163 4.4071 31.369C4.41044 31.3683 4.41378 31.3675 4.41712 31.3668C4.47179 31.3556 4.52698 31.346 4.58253 31.3371C4.59176 31.3356 4.60099 31.3338 4.61039 31.3324C4.66058 31.3247 4.71129 31.3188 4.762 31.3131C4.77624 31.3115 4.79039 31.3093 4.80472 31.3079C4.85367 31.3029 4.90307 31.2997 4.95246 31.2966C4.96811 31.2957 4.98375 31.294 4.99939 31.2932C5.06408 31.2899 5.1293 31.2883 5.19478 31.2883C5.55952 31.2883 5.85527 30.9926 5.85527 30.6278V25.8387C5.85527 25.4739 5.55952 25.1782 5.19478 25.1782C4.83003 25.1782 4.53428 25.4739 4.53428 25.8387V30.0088C3.41895 30.1499 2.38368 30.6474 1.56735 31.4445C1.48148 31.5284 1.4001 31.6156 1.32082 31.7042V7.10877C1.32082 5.19794 2.71178 3.60562 4.53419 3.29115V9.76913V23.1968V23.1969C4.53419 23.5616 4.82994 23.8574 5.19469 23.8574C5.55943 23.8574 5.85519 23.5616 5.85519 23.1969V23.1968V10.4296H25.0364L21.3851 14.081C21.1271 14.339 21.1271 14.7571 21.3851 15.0151C21.6431 15.2729 22.0613 15.2729 22.3191 15.0151L27.098 10.2362C27.0982 10.236 27.0983 10.2358 27.0984 10.2357L31.4213 5.91284L34.4538 8.94551L34.098 9.30129C34.0978 9.30155 34.0974 9.30182 34.0972 9.30208L20.7793 22.6201L17.7467 19.5876L20.3718 16.9625C20.6298 16.7044 20.6298 16.2863 20.3718 16.0283C20.1139 15.7705 19.6957 15.7705 19.4378 16.0283L16.3455 19.1205C16.329 19.137 16.3136 19.1545 16.2991 19.1725C16.2942 19.1784 16.2899 19.1849 16.2853 19.1911C16.276 19.2035 16.2669 19.216 16.2584 19.229C16.2535 19.2365 16.2491 19.2443 16.2446 19.2521C16.2373 19.2644 16.2302 19.2769 16.2238 19.2896C16.2196 19.2979 16.2158 19.3062 16.212 19.3148C16.2061 19.3278 16.2006 19.3409 16.1956 19.3541C16.1938 19.3588 16.1916 19.3632 16.1899 19.3678L14.9031 23.0131L14.0258 25.4986C14.0142 25.5316 14.0058 25.5652 13.9996 25.599H11.803C11.4383 25.599 11.1425 25.8947 11.1425 26.2595C11.1425 26.6244 11.4383 26.92 11.803 26.92H30.0943C30.4591 26.92 30.7548 26.6244 30.7548 26.2595C30.7548 25.8947 30.4591 25.599 30.0943 25.599H16.9711L20.9991 24.1771C21.0024 24.1759 21.0056 24.1742 21.0089 24.173C21.0246 24.1672 21.04 24.1607 21.0552 24.1537C21.0612 24.1509 21.0673 24.1483 21.0732 24.1454C21.089 24.1375 21.1046 24.1288 21.1199 24.1195C21.1248 24.1165 21.1299 24.1138 21.1347 24.1107C21.1506 24.1005 21.1661 24.0893 21.1813 24.0775C21.1851 24.0746 21.189 24.0721 21.1927 24.0691C21.2111 24.0543 21.2291 24.0384 21.2462 24.0214L34.8379 10.4297H40.5732V24.5402L31.1253 33.9882C30.8674 34.2462 30.8674 34.6643 31.1253 34.9223C31.1414 34.9384 31.1582 34.9535 31.1755 34.9676C31.2966 35.0663 31.4445 35.1157 31.5924 35.1157C31.7402 35.1157 31.8882 35.0663 32.0092 34.9676C32.0266 34.9536 32.0433 34.9384 32.0594 34.9223C32.0597 34.922 32.0594 34.9223 32.0597 34.922L43.6792 23.3024V29.1298ZM19.5712 23.2801L17.6793 23.948L16.4188 22.6875L17.0866 20.7955L19.5712 23.2801Z" fill="#007CED"/>
</symbol><symbol id="frontend" viewBox="0 0 45 40">
<path d="M17.7546 28.882C17.5846 28.882 17.4134 28.8236 17.2737 28.7046L12.4663 24.611C12.3004 24.4697 12.2051 24.2632 12.2051 24.0451C12.2051 23.8275 12.3008 23.621 12.4663 23.4796L17.2737 19.3861C17.5859 19.1199 18.0548 19.1577 18.3209 19.4698C18.5867 19.7824 18.5494 20.2513 18.2368 20.5171L14.0939 24.0451L18.2368 27.5732C18.5494 27.8394 18.5867 28.3082 18.3209 28.6204C18.1738 28.7933 17.9648 28.882 17.7546 28.882Z" fill="#007CED"/>
<path d="M27.2452 28.882C27.0351 28.882 26.8261 28.7933 26.6793 28.6204C26.4132 28.3082 26.4509 27.8394 26.7631 27.5732L30.906 24.0451L26.7631 20.5171C26.4509 20.2513 26.4132 19.7824 26.6793 19.4698C26.9451 19.1577 27.4144 19.1199 27.7262 19.3861L32.5336 23.4796C32.6994 23.621 32.7948 23.8275 32.7948 24.0451C32.7948 24.2632 32.6994 24.4697 32.5336 24.611L27.7262 28.7046C27.5864 28.8236 27.4152 28.882 27.2452 28.882Z" fill="#007CED"/>
<path d="M20.7983 31.9524C20.7473 31.9524 20.6959 31.947 20.6441 31.9362C20.2428 31.8516 19.9857 31.4574 20.0703 31.0561L23.0665 16.8306C23.151 16.4293 23.5449 16.1723 23.9466 16.2569C24.3479 16.3414 24.605 16.7353 24.5204 17.137L21.5242 31.3624C21.4504 31.7124 21.142 31.9524 20.7983 31.9524Z" fill="#007CED"/>
<path d="M40.0118 39.7025H4.98821C2.23789 39.7025 0 37.465 0 34.7143V4.98821C0 2.23789 2.23789 0 4.98821 0H40.0118C42.7621 0 45 2.23789 45 4.98821V34.7143C45 37.465 42.7621 39.7025 40.0118 39.7025ZM4.98821 1.48585C3.0571 1.48585 1.48585 3.0571 1.48585 4.98821V34.7143C1.48585 36.6454 3.0571 38.2167 4.98821 38.2167H40.0118C41.9429 38.2167 43.5142 36.6454 43.5142 34.7143V4.98821C43.5142 3.0571 41.9429 1.48585 40.0118 1.48585H4.98821Z" fill="#007CED"/>
<path d="M44.2571 11.8963H0.742925C0.332492 11.8963 0 11.5638 0 11.1534C0 10.7434 0.332492 10.4105 0.742925 10.4105H44.2571C44.6675 10.4105 45 10.7434 45 11.1534C45 11.5638 44.6675 11.8963 44.2571 11.8963Z" fill="#007CED"/>
<path d="M12.6934 8.34132C11.3974 8.34132 10.3423 7.28622 10.3423 5.99025C10.3423 4.69386 11.3974 3.63918 12.6934 3.63918C13.9897 3.63918 15.0444 4.69386 15.0444 5.99025C15.0444 7.28622 13.9897 8.34132 12.6934 8.34132ZM12.6934 5.12502C12.2166 5.12502 11.8281 5.51307 11.8281 5.99025C11.8281 6.46743 12.2166 6.85547 12.6934 6.85547C13.1705 6.85547 13.5586 6.46743 13.5586 5.99025C13.5586 5.51307 13.1705 5.12502 12.6934 5.12502Z" fill="#007CED"/>
<path d="M5.46973 8.31851C4.17334 8.31851 3.11865 7.26382 3.11865 5.96744C3.11865 4.67105 4.17334 3.61636 5.46973 3.61636C6.76611 3.61636 7.8208 4.67105 7.8208 5.96744C7.8208 7.26382 6.76611 8.31851 5.46973 8.31851ZM5.46973 5.10221C4.99296 5.10221 4.6045 5.49067 4.6045 5.96744C4.6045 6.44462 4.99296 6.83266 5.46973 6.83266C5.94691 6.83266 6.33495 6.44462 6.33495 5.96744C6.33495 5.49067 5.94691 5.10221 5.46973 5.10221Z" fill="#007CED"/>
<path d="M19.9171 8.36371C18.6211 8.36371 17.5664 7.30902 17.5664 6.01263C17.5664 4.71666 18.6211 3.66197 19.9171 3.66197C21.2135 3.66197 22.2681 4.71666 22.2681 6.01263C22.2681 7.30902 21.2135 8.36371 19.9171 8.36371ZM19.9171 5.14741C19.4403 5.14741 19.0523 5.53545 19.0523 6.01263C19.0523 6.48981 19.4403 6.87786 19.9171 6.87786C20.3942 6.87786 20.7823 6.48981 20.7823 6.01263C20.7823 5.53545 20.3942 5.14741 19.9171 5.14741Z" fill="#007CED"/>
</symbol></svg>